<svg id="a4e8a0bc-9572-4caf-a9c6-5db2b1d6f489" data-name="logo" xmlns="http://www.w3.org/2000/svg" viewBox="0 0 140 28">
  <defs>
    <style>
      .a44ba092-95dc-46fc-a597-0b3c72700191 {
        fill: #00aeef;
      }
    </style>
  </defs>
  <path id="bf914d49-a96c-4b7a-a00f-802f0fd00a16" data-name="Combined Shape" d="M85.21,8.63c0-6,3.85-8.56,8.21-8.58a11.32,11.32,0,0,1,3.17.42V3.29a8.35,8.35,0,0,0-3.2-.64c-3.06,0-5.23,1.61-5.22,5.9s2.4,5.84,5.29,5.82a7.37,7.37,0,0,0,3.17-.63v2.53a7.53,7.53,0,0,1-3.3.73h0C89,17,85.23,14.66,85.21,8.63ZM110,17a6.88,6.88,0,0,1-5.13-2,9.07,9.07,0,0,1-2.16-6.38,9.21,9.21,0,0,1,2.13-6.44A6.87,6.87,0,0,1,109.94,0h0a6.92,6.92,0,0,1,5.1,2,9,9,0,0,1,2.16,6.36,9.18,9.18,0,0,1-2.14,6.45A6.86,6.86,0,0,1,110,17Zm-4.37-8.4a7.33,7.33,0,0,0,1.21,4.55A3.83,3.83,0,0,0,110,14.52h0a3.77,3.77,0,0,0,2.79-1.08c1-1,1.54-2.72,1.53-5a7.23,7.23,0,0,0-1.22-4.54A3.81,3.81,0,0,0,110,2.47c-2.82,0-4.37,2.18-4.35,6.08ZM22.68,17,16.92.7l3,0c1.27,4,2.81,8.45,3.7,10.76.13.35.26.79.43.79s.25-.47.43-.84L28.28.65h2.85c-2,4.9-5,13.18-5.95,16.3ZM6,.65H8.44l5.78,16.24-3,0C10.86,15.63,7.84,6.6,7.13,4.84,6.69,6,4.89,11.15,3.77,14.34H6.06l-.85,2.6H0C2,12.05,5,3.79,6,.65Zm30.36,0,9,0V3.05c-1.18-.11-3.16-.13-5.9-.13-.22,0-.35.1-.38.45,0,.83,0,2.34,0,3.73h5.65V9.49H39v4.42a.46.46,0,0,0,.4.5h0c2.82,0,4.52,0,6.07-.1v2.49l-9.18,0Zm16-.05h2.77c0,1.92-.07,3.76-.07,7.29v6.06a.41.41,0,0,0,.34.46h.12c3,0,4.61,0,5.65-.11v2.5l-8.78,0ZM71.93.44l2.49,0,5.77,16.26-3,0c-.38-1.28-3.39-10.31-4.1-12.07-.44,1.16-2.24,6.31-3.36,9.5H72l-.85,2.6-5.21,0C68,11.83,71,3.57,71.93.44ZM124.3.36l3.11,0c1.32,3.92,2.89,8.43,3.9,10.79.1.21.19.45.3.45s.2-.26.3-.49L136.09.29h2.77l.52,8.61c.21,3.23.45,6.31.62,7.6l-2.84,0-.55-11.18c-1.23,3-3.2,8.39-4,10.63h-2.14l-3.91-10.6c-.16,3.27-.32,9.39-.35,11.19l-2.78,0Z"/>
  <path id="a8540bae-b774-454e-a369-5e861827b97f" data-name="Path" class="a44ba092-95dc-46fc-a597-0b3c72700191" d="M8,28l2.65-6.89L46,21l-2.65,6.9Z"/>
</svg>
